# xmcd
#
# Track frame offsets: 
#        150
#        15657
#        32565
#        52910
#        76567
#        90745
#        119420
#        133640
#        146940
#        168960
#        197967
#        219065
#
# Disc length: 3108 seconds
#
# Revision: 0
# Processed by: cddbd v1.5.2PL0 Copyright (c) Steve Scherf et al.
# Submitted via: ExactAudioCopy v0.99pb1
#
DISCID=980c220c
DTITLE=Jr Medlow - Thrill For Thrill
DYEAR=1994
DGENRE=Blues
TTITLE0=It Sho' Is A Movie To Me
TTITLE1=I Only Have Love For You
TTITLE2=(I'll Be) The First To Let You Know
TTITLE3=Thrill For Thrill
TTITLE4=Heartbreak
TTITLE5=Worst Kind Of Way
TTITLE6=See See Baby
TTITLE7=Since I Found A New Love
TTITLE8=You really Make Me Happy
TTITLE9=Hey Baby
TTITLE10=Cold Sweat
TTITLE11=Checkin' On My Baby
EXTD=
EXTT0=
EXTT1=
EXTT2=
EXTT3=
EXTT4=
EXTT5=
EXTT6=
EXTT7=
EXTT8=
EXTT9=
EXTT10=
EXTT11=
PLAYORDER=
